<svg xmlns="http://www.w3.org/2000/svg" xmlns:xlink="http://www.w3.org/1999/xlink" width="500" zoomAndPan="magnify" viewBox="0 0 375 374.999991" height="500" preserveAspectRatio="xMidYMid meet" version="1.0"><defs><g/><clipPath id="8cd08633c5"><path d="M 284.402344 268.804688 L 375 268.804688 L 375 375 L 284.402344 375 Z M 284.402344 268.804688 " clip-rule="nonzero"/></clipPath><clipPath id="0fa6730211"><path d="M 337.5 268.804688 C 308.175781 268.804688 284.402344 292.578125 284.402344 321.902344 C 284.402344 351.226562 308.175781 375 337.5 375 C 366.824219 375 390.597656 351.226562 390.597656 321.902344 C 390.597656 292.578125 366.824219 268.804688 337.5 268.804688 Z M 337.5 268.804688 " clip-rule="nonzero"/></clipPath><clipPath id="19a14cf53f"><path d="M 187.5 -4.082031 C 81.691406 -4.082031 -4.082031 81.691406 -4.082031 187.5 C -4.082031 293.308594 81.691406 379.078125 187.5 379.078125 C 293.308594 379.078125 379.078125 293.308594 379.078125 187.5 C 379.078125 81.691406 293.308594 -4.082031 187.5 -4.082031 Z M 187.5 -4.082031 " clip-rule="nonzero"/></clipPath><clipPath id="1bbe1740e8"><path d="M 70.710938 70.710938 L 304.289062 70.710938 L 304.289062 304.289062 L 70.710938 304.289062 Z M 70.710938 70.710938 " clip-rule="nonzero"/></clipPath><clipPath id="eee0cc08b4"><path d="M 187.5 70.710938 C 123 70.710938 70.710938 123 70.710938 187.5 C 70.710938 252 123 304.289062 187.5 304.289062 C 252 304.289062 304.289062 252 304.289062 187.5 C 304.289062 123 252 70.710938 187.5 70.710938 Z M 187.5 70.710938 " clip-rule="nonzero"/></clipPath></defs><g clip-path="url(#8cd08633c5)"><g clip-path="url(#0fa6730211)"><path fill="#ffb71b" d="M 284.402344 268.804688 L 390.597656 268.804688 L 390.597656 375 L 284.402344 375 Z M 284.402344 268.804688 " fill-opacity="1" fill-rule="nonzero"/></g></g><g clip-path="url(#19a14cf53f)"><rect x="-37.5" width="450" fill="#0f4e32" y="-37.499999" height="449.999989" fill-opacity="1"/></g><g clip-path="url(#1bbe1740e8)"><g clip-path="url(#eee0cc08b4)"><path fill="#edeae9" d="M 70.710938 70.710938 L 304.289062 70.710938 L 304.289062 304.289062 L 70.710938 304.289062 Z M 70.710938 70.710938 " fill-opacity="1" fill-rule="nonzero"/></g></g><g fill="#ffb71b" fill-opacity="1"><g transform="translate(70.375857, 221.754647)"><g><path d="M 35.484375 -57.546875 C 44.722656 -57.546875 52.203125 -55.570312 57.921875 -51.625 C 63.640625 -47.6875 66.5 -41.664062 66.5 -33.5625 L 45.921875 -33.5625 C 45.921875 -39.957031 42.441406 -43.15625 35.484375 -43.15625 C 28.523438 -43.15625 25.046875 -39.140625 25.046875 -31.109375 L 25.046875 -25.046875 C 25.046875 -17.085938 28.664062 -13.109375 35.90625 -13.109375 C 43.15625 -13.109375 46.78125 -16.375 46.78125 -22.90625 L 66.5 -22.90625 C 66.5 -14.738281 63.640625 -8.664062 57.921875 -4.6875 C 52.203125 -0.707031 44.722656 1.28125 35.484375 1.28125 C 25.609375 1.28125 17.863281 -1.203125 12.25 -6.171875 C 6.644531 -11.148438 3.84375 -18.46875 3.84375 -28.125 C 3.84375 -37.789062 6.644531 -45.109375 12.25 -50.078125 C 17.863281 -55.054688 25.609375 -57.546875 35.484375 -57.546875 Z M 35.484375 -57.546875 "/></g></g></g><g fill="#ffb71b" fill-opacity="1"><g transform="translate(141.445782, 221.754647)"><g><path d="M 34.203125 -57.546875 C 42.796875 -57.546875 49.789062 -56.101562 55.1875 -53.21875 C 60.59375 -50.34375 63.296875 -45.675781 63.296875 -39.21875 L 63.296875 -17.265625 C 63.296875 -16.054688 63.578125 -15.0625 64.140625 -14.28125 C 64.710938 -13.5 65.566406 -13.109375 66.703125 -13.109375 L 70.546875 -13.109375 L 70.546875 -0.859375 C 70.328125 -0.710938 69.773438 -0.476562 68.890625 -0.15625 C 68.003906 0.15625 66.742188 0.472656 65.109375 0.796875 C 63.472656 1.117188 61.59375 1.28125 59.46875 1.28125 C 55.34375 1.28125 51.945312 0.660156 49.28125 -0.578125 C 46.625 -1.828125 44.796875 -3.550781 43.796875 -5.75 C 41.097656 -3.625 38.078125 -1.921875 34.734375 -0.640625 C 31.398438 0.640625 27.492188 1.28125 23.015625 1.28125 C 9.804688 1.28125 3.203125 -3.976562 3.203125 -14.5 C 3.203125 -19.96875 4.675781 -24.140625 7.625 -27.015625 C 10.570312 -29.890625 14.816406 -31.859375 20.359375 -32.921875 C 25.898438 -33.992188 33.144531 -34.53125 42.09375 -34.53125 L 42.09375 -37.296875 C 42.09375 -39.492188 41.328125 -41.160156 39.796875 -42.296875 C 38.273438 -43.441406 36.304688 -44.015625 33.890625 -44.015625 C 31.679688 -44.015625 29.773438 -43.625 28.171875 -42.84375 C 26.578125 -42.0625 25.78125 -40.816406 25.78125 -39.109375 L 25.78125 -38.6875 L 4.90625 -38.6875 C 4.832031 -39.039062 4.796875 -39.535156 4.796875 -40.171875 C 4.796875 -45.503906 7.332031 -49.734375 12.40625 -52.859375 C 17.488281 -55.984375 24.753906 -57.546875 34.203125 -57.546875 Z M 42.09375 -24.515625 C 36.050781 -24.515625 31.59375 -23.851562 28.71875 -22.53125 C 25.84375 -21.21875 24.40625 -19.460938 24.40625 -17.265625 C 24.40625 -13.710938 26.820312 -11.9375 31.65625 -11.9375 C 34.425781 -11.9375 36.859375 -12.679688 38.953125 -14.171875 C 41.046875 -15.660156 42.09375 -17.507812 42.09375 -19.71875 Z M 42.09375 -24.515625 "/></g></g></g><g fill="#ffb71b" fill-opacity="1"><g transform="translate(212.515708, 221.754647)"><g><path d="M 7.140625 0 L 7.140625 -77.265625 L 28.34375 -77.265625 L 28.34375 0 Z M 7.140625 0 "/></g></g></g></svg>